# Blender 4.4.1
# www.blender.org
mtllib Jam1Hand1.mtl
o Cube
v -0.130247 1.329886 -0.143154
v -1.295178 2.966714 0.844941
v -0.130247 1.329886 -2.358405
v -0.870883 2.721072 -3.346500
v 0.514493 1.702127 -0.143154
v -0.336237 3.520360 0.844941
v 0.498832 1.693086 -2.358405
v 0.088059 3.274717 -3.346500
v -0.795178 2.100689 0.437636
v -0.795178 2.100689 -2.939196
v 0.163763 2.654334 -2.939196
v 0.163763 2.654334 0.437636
v -1.958155 4.115024 1.172149
v -1.441240 3.708960 -3.125497
v -0.482298 4.262605 -3.125497
v -0.999214 4.668670 1.172149
v -0.130247 1.329886 -0.550822
v -0.950012 3.165996 0.073599
v 0.910477 1.930749 -0.602968
v 0.008930 3.719642 0.073599
v 0.508930 2.853616 -0.183795
v -0.450012 2.299971 -0.183795
v -1.472258 4.395557 0.245364
v -0.794778 4.786700 0.245364
v -0.682048 3.320705 -0.781643
v 0.894817 1.921708 -1.054979
v -0.182048 2.454680 -0.872820
v -1.204294 4.550266 -0.616923
v -0.130247 1.329886 -1.002833
v 0.276893 3.874351 -0.781643
v 0.776893 3.008325 -0.872820
v -0.526814 4.941409 -0.616923
v -0.682048 3.320705 -1.567615
v 0.894817 1.921708 -1.470379
v -0.182048 2.454680 -1.506038
v -1.345025 4.469015 -1.546316
v -0.130247 1.329886 -1.418233
v 0.276893 3.874351 -1.567615
v 0.776893 3.008325 -1.506038
v -0.386084 5.022660 -1.546315
v -0.950012 3.165996 -2.457057
v 0.498832 1.693086 -1.888319
v -0.450012 2.299971 -2.222617
v -1.612989 4.314306 -2.408456
v -0.130247 1.329886 -1.888319
v 0.008930 3.719642 -2.457057
v 0.508930 2.853616 -2.222617
v -0.654047 4.867951 -2.408456
v -1.453436 3.730084 -3.915316
v -0.494494 4.283730 -3.915316
v -3.267461 4.217553 -4.005571
v -2.885632 4.438002 -4.005571
v -3.272317 4.225965 -4.205769
v -2.890488 4.446413 -4.205769
v -3.894612 6.199749 -3.404359
v -3.843050 6.110442 -3.803539
v -3.461797 6.330558 -3.803539
v -3.513359 6.419866 -3.404359
v -3.602116 7.065958 -2.349009
v -3.602116 7.065958 -2.003238
v -3.986710 6.843912 -2.003238
v -3.986710 6.843912 -2.349009
v -4.027603 7.011122 -1.340160
v -4.027603 7.011122 -1.002199
v -4.459558 6.761732 -1.002199
v -4.459558 6.761732 -1.340160
v -3.565372 6.612992 -0.112184
v -3.565372 6.612992 0.272001
v -4.009781 6.356412 0.272001
v -4.009781 6.356412 -0.112184
v -2.782358 5.933002 1.158053
v -2.782358 5.933002 1.522824
v -3.250208 5.662889 1.522824
v -3.250208 5.662889 1.158053
v -2.449170 5.298475 -3.524189
v -1.778605 5.685626 -3.524189
v -1.677867 5.910350 -2.965821
v -2.348431 5.523200 -2.965821
v -2.226122 5.261251 0.846164
v -1.512726 5.673131 0.846164
v -1.685309 5.573490 1.402382
v -2.398705 5.161611 1.402382
v 5.360195 -3.141809 -0.335991
v 5.430138 -3.000372 0.201638
v 6.254395 -2.176114 -2.719816
v 5.430138 -3.000372 -2.719816
v 6.425618 -1.988399 -2.101682
v 6.254395 -2.176114 0.201638
v 5.360195 -3.141809 -0.932099
v 6.425618 -1.988399 -0.337803
v 6.425618 -1.988399 -0.933911
v 5.360195 -3.141809 -1.479925
v 6.425618 -1.988399 -1.481737
v 5.360195 -3.141809 -2.099870
v 0.721041 0.569079 -1.914391
v 0.721041 0.569079 -1.427061
v -0.271704 -0.473385 -1.912184
v -0.098118 -0.266573 -2.399909
v -0.271704 -0.473385 -1.424854
v 0.565948 0.397493 -0.103398
v 0.737170 0.585208 -0.527832
v 0.721041 0.569079 -0.996423
v -0.098118 -0.266573 -0.103398
v -0.271704 -0.473385 -0.525625
v 0.549818 0.381364 -2.399909
v -0.271704 -0.473385 -0.994216
v -1.754859 5.945345 0.221564
v -2.255108 5.656527 0.221564
v -1.754859 5.945345 -0.327435
v -2.255108 5.656527 -0.327435
v -2.403909 5.695430 -2.434871
v -1.799842 6.044188 -2.434871
v -2.403909 5.695430 -1.891781
v -1.799842 6.044188 -1.891781
v -2.395230 5.647437 -0.779090
v -2.465595 5.606812 -1.473709
v -1.762619 6.012675 -0.779090
v -1.692253 6.053301 -1.473709
vn -0.7926 -0.2675 0.5479
vn -0.7897 -0.5594 0.2519
vn -0.7925 -0.2794 -0.5421
vn -0.6445 -0.6424 -0.4145
vn 0.6362 -0.1112 0.7634
vn 0.6423 0.1333 0.7547
vn 0.8175 -0.0602 -0.5728
vn 0.8200 0.0699 -0.5680
vn -0.7418 -0.6219 0.2512
vn -0.7503 -0.6017 -0.2738
vn 0.7760 -0.1490 -0.6129
vn 0.6384 -0.0687 0.7666
vn -0.8295 -0.5003 0.2482
vn -0.8259 -0.5363 0.1741
vn 0.7086 0.6749 -0.2059
vn 0.6656 0.2770 0.6930
vn -0.9933 -0.0672 -0.0944
vn -0.8435 -0.3323 -0.4220
vn 0.9564 0.0239 0.2910
vn 0.8161 0.4268 0.3896
vn 0.8769 0.2339 0.4198
vn -0.8877 -0.2824 -0.3637
vn -0.8785 -0.3055 -0.3672
vn 0.7300 0.6159 0.2962
vn -0.8891 -0.4337 -0.1464
vn 0.9990 0.0026 0.0446
vn -0.9476 -0.2840 -0.1464
vn -0.8733 -0.4823 -0.0691
vn -0.9984 0.0013 -0.0561
vn 0.8416 0.5037 0.1947
vn 0.9386 0.3129 0.1454
vn 0.7190 0.6657 0.1995
vn -0.8619 -0.4686 0.1940
vn 0.9773 -0.0140 -0.2112
vn -0.9469 -0.2884 0.1421
vn -0.8362 -0.5157 0.1868
vn -0.9985 -0.0014 0.0552
vn 0.8550 0.4977 -0.1457
vn 0.9399 0.2802 -0.1951
vn 0.7407 0.6677 -0.0742
vn -0.8525 -0.4417 0.2793
vn 0.9408 0.0352 -0.3371
vn -0.9117 -0.2868 0.2943
vn -0.8631 -0.4368 0.2536
vn -0.9928 -0.0782 0.0907
vn 0.8525 0.4417 -0.2793
vn 0.9166 0.1752 -0.3593
vn 0.7211 0.6314 -0.2854
vn -0.2945 -0.7465 -0.5967
vn 0.5467 0.7022 -0.4560
vn -0.9360 -0.1429 0.3216
vn -0.2550 0.9030 0.3458
vn -0.9291 -0.0882 -0.3592
vn -0.1808 0.8632 -0.4713
vn -0.9106 0.2148 0.3531
vn -0.9370 -0.1593 -0.3110
vn -0.0009 0.7478 -0.6639
vn -0.1668 0.9646 0.2040
vn -0.0093 0.9138 -0.4061
vn -0.0110 0.9150 0.4034
vn -0.9305 0.0524 0.3626
vn -0.9298 0.0515 -0.3644
vn -0.0658 0.9201 -0.3862
vn -0.0691 0.9022 0.4256
vn -0.9146 0.0050 0.4044
vn -0.9515 0.0033 -0.3076
vn -0.0941 0.9126 -0.3978
vn -0.0725 0.8983 0.4333
vn -0.9277 -0.0684 0.3669
vn -0.9351 -0.0615 -0.3489
vn -0.1588 0.9363 -0.3134
vn -0.0923 0.8498 0.5189
vn -0.9686 0.0131 0.2481
vn -0.8936 0.0317 -0.4477
vn -0.5916 -0.7095 -0.3828
vn 0.5005 0.5285 -0.6857
vn 0.4359 0.8680 0.2379
vn -0.5801 -0.2769 0.7661
vn -0.5969 -0.1780 -0.7823
vn 0.4785 0.8408 -0.2530
vn 0.4856 0.6326 0.6034
vn -0.5447 -0.7327 0.4079
vn 0.1617 -0.9776 0.1346
vn 0.2705 -0.7842 0.5584
vn 0.8299 -0.0775 -0.5525
vn 0.2539 -0.7990 -0.5450
vn 0.9561 0.2378 -0.1713
vn 0.8167 -0.1134 0.5658
vn 0.1901 -0.9818 -0.0000
vn 0.9552 0.2364 0.1782
vn 0.9798 0.1997 -0.0086
vn 0.9797 0.2004 -0.0000
vn 0.1615 -0.9796 -0.1199
vn 0.7884 0.5466 -0.2822
vn 0.8318 0.5438 -0.1113
vn -0.8398 -0.5252 -0.1374
vn -0.7434 -0.3304 -0.5815
vn -0.8653 -0.5012 -0.0000
vn 0.2761 0.2726 0.9216
vn 0.8261 0.4779 0.2987
vn 0.8705 0.4918 -0.0156
vn -0.7318 -0.3117 0.6060
vn -0.8380 -0.5239 0.1529
vn 0.3695 0.3323 -0.8678
vn 0.4572 0.7154 0.5283
vn -0.4993 -0.6758 0.5422
vn 0.4398 0.8110 -0.3858
vn -0.5307 -0.5424 -0.6512
vn -0.6207 -0.5883 -0.5183
vn 0.4822 0.6784 -0.5542
vn -0.6134 -0.5001 0.6113
vn 0.4722 0.7812 0.4085
vn -0.5167 -0.5883 0.6220
vn -0.5452 -0.6843 -0.4842
vn 0.3997 0.7489 0.5286
vn 0.4590 0.7872 -0.4119
vt 0.500000 0.196949
vt 0.625000 0.196949
vt 0.625000 0.250000
vt 0.500000 0.250000
vt 0.625000 0.500000
vt 0.500000 0.500000
vt 0.500000 0.703993
vt 0.625000 0.703993
vt 0.625000 0.750000
vt 0.500000 0.750000
vt 0.625000 1.000000
vt 0.500000 1.000000
vt 0.375000 0.606102
vt 0.375000 0.652982
vt 0.625000 0.553051
vt 0.375000 0.750000
vt 0.375000 1.000000
vt 0.375000 0.703993
vt 0.375000 0.250000
vt 0.375000 0.500000
vt 0.375000 0.196949
vt 0.875000 0.703993
vt 0.875000 0.703993
vt 0.625000 0.046007
vt 0.625000 0.000000
vt 0.625000 0.046007
vt 0.875000 0.500000
vt 0.625000 0.097018
vt 0.375000 0.000000
vt 0.500000 0.000000
vt 0.500000 0.046007
vt 0.375000 0.046007
vt 0.500000 0.652982
vt 0.625000 0.652982
vt 0.500000 0.606102
vt 0.625000 0.606102
vt 0.375000 0.143898
vt 0.625000 0.143898
vt 0.625000 0.143898
vt 0.625000 0.143898
vt 0.500000 0.097018
vt 0.375000 0.097018
vt 0.625000 0.553051
vt 0.875000 0.553051
vt 0.375000 0.553051
vt 0.500000 0.553051
vt 0.500000 0.143898
vt 0.625000 0.500000
vt 0.875000 0.553051
vt 0.625000 0.196949
vt 0.875000 0.606102
vt 0.625000 0.606102
vt 0.875000 0.652982
vt 0.875000 0.750000
vt 0.625000 0.750000
vt 0.125000 0.703993
vt 0.125000 0.750000
vt 0.125000 0.652982
vt 0.125000 0.606102
vt 0.125000 0.553051
vt 0.125000 0.500000
s 1
usemtl Material.008
f 43/1/43 41/2/41 4/3/4 10/4/10
f 10/4/10 4/3/4 8/5/8 11/6/11
f 21/7/21 20/8/20 6/9/6 12/10/12
f 12/10/12 6/9/6 2/11/2 9/12/9
f 96/13/95 102/14/101 91/14/91 93/13/92
f 46/15/46 8/5/8 15/5/15 48/15/48
f 5/16/5 12/10/12 9/12/9 1/17/1
f 19/18/19 21/7/21 12/10/12 5/16/5
f 3/19/3 10/4/10 11/6/11 7/20/7
f 45/21/45 43/1/43 10/4/10 3/19/3
f 80/8/80 79/22/79 74/23/74 71/8/71
f 18/24/18 2/25/2 13/25/13 23/26/23
f 2/11/2 6/9/6 16/9/16 13/11/13
f 4/3/4 14/27/14 49/27/49
f 25/28/25 18/24/18 23/26/23 28/28/28
f 108/22/106 107/8/105 68/8/68 69/23/69
f 1/29/1 9/30/9 22/31/22 17/32/17
f 26/14/26 31/33/31 21/7/21 19/18/19
f 6/9/6 20/8/20 24/8/24 16/9/16
f 101/18/100 100/16/99 88/16/88 90/18/90
f 31/33/31 30/34/30 20/8/20 21/7/21
f 9/30/9 2/25/2 18/24/18 22/31/22
f 39/35/39 38/36/38 30/34/30 31/33/31
f 99/37/98 97/21/96 94/21/93 92/37/89
f 34/13/34 39/35/39 31/33/31 26/14/26
f 116/38/114 115/28/113 65/28/65 66/39/66
f 33/40/33 25/28/25 28/28/28 36/39/36
f 17/32/17 22/31/22 27/41/27 29/42/29
f 20/8/20 30/34/30 32/34/32 24/8/24
f 22/31/22 18/24/18 25/28/25 27/41/27
f 41/2/41 33/40/33 36/39/36 44/2/44
f 112/43/110 111/44/109 62/44/62 59/15/59
f 42/45/42 47/46/47 39/35/39 34/13/34
f 95/45/94 96/13/95 93/13/92 87/45/87
f 47/46/47 46/15/46 38/36/38 39/35/39
f 29/42/29 27/41/27 35/47/35 37/37/37
f 30/34/30 38/36/38 40/36/40 32/34/32
f 27/41/27 25/28/25 33/40/33 35/47/35
f 11/6/11 8/5/8 46/15/46 47/46/47
f 97/21/96 98/19/97 86/19/86 94/21/93
f 7/20/7 11/6/11 47/46/47 42/45/42
f 76/48/76 75/27/75 56/27/56 57/5/57
f 4/3/4 41/2/41 44/2/44 14/3/14
f 37/37/37 35/47/35 43/1/43 45/21/45
f 38/36/38 46/15/46 48/15/48 40/36/40
f 35/47/35 33/40/33 41/2/41 43/1/43
f 8/5/8 4/3/4 49/27/49 50/5/50
f 15/5/15 8/5/8 50/5/50
f 15/5/15 50/5/50 54/5/54 52/5/52
f 51/27/51 52/5/52 54/5/54 53/27/53
f 14/27/14 15/5/15 52/5/52 51/27/51
f 49/27/49 14/27/14 51/27/51 53/27/53
f 50/5/50 49/27/49 53/27/53 54/5/54
f 57/5/57 56/27/56 55/44/55 58/15/58
f 78/49/78 77/15/77 58/15/58 55/44/55
f 77/15/77 76/48/76 57/5/57 58/15/58
f 75/3/75 78/50/78 55/2/55 56/3/56
f 59/15/59 62/44/62 61/51/61 60/36/60
f 111/2/109 113/39/111 61/39/61 62/2/62
f 113/51/111 114/52/112 60/36/60 61/51/61
f 114/52/112 112/43/110 59/15/59 60/36/60
f 63/36/63 66/51/66 65/53/65 64/34/64
f 115/53/113 117/34/115 64/34/64 65/53/65
f 117/34/115 118/36/116 63/36/63 64/34/64
f 118/36/116 116/51/114 66/51/66 63/36/63
f 67/34/67 70/53/70 69/23/69 68/8/68
f 107/8/105 109/34/107 67/34/67 68/8/68
f 109/34/107 110/53/108 70/53/70 67/34/67
f 110/28/108 108/26/106 69/26/69 70/28/70
f 71/8/71 74/23/74 73/54/73 72/9/72
f 81/55/81 80/8/80 71/8/71 72/9/72
f 82/11/82 81/55/81 72/9/72 73/11/73
f 79/26/79 82/25/82 73/25/73 74/26/74
f 14/3/14 44/2/44 78/50/78 75/3/75
f 48/15/48 15/5/15 76/48/76 77/15/77
f 44/44/44 48/15/48 77/15/77 78/49/78
f 15/5/15 14/27/14 75/27/75 76/48/76
f 23/26/23 13/25/13 82/25/82 79/26/79
f 13/11/13 16/9/16 81/55/81 82/11/82
f 16/9/16 24/8/24 80/8/80 81/55/81
f 24/8/24 23/23/23 79/22/79 80/8/80
f 83/56/83 90/18/90 88/16/88 84/57/84
f 89/58/89 91/14/91 90/18/90 83/56/83
f 92/59/89 93/13/92 91/14/91 89/58/89
f 94/60/93 87/45/87 93/13/92 92/59/89
f 86/61/86 85/20/85 87/45/87 94/60/93
f 100/16/99 103/17/102 84/17/84 88/16/88
f 103/29/102 104/32/103 83/32/83 84/29/84
f 105/20/104 95/45/94 87/45/87 85/20/85
f 106/42/98 99/37/98 92/37/89 89/42/89
f 98/19/97 105/20/104 85/20/85 86/19/86
f 102/14/101 101/18/100 90/18/90 91/14/91
f 104/32/103 106/42/98 89/42/89 83/32/83
f 17/32/17 29/42/29 106/42/98 104/32/103
f 26/14/26 19/18/19 101/18/100 102/14/101
f 3/19/3 7/20/7 105/20/104 98/19/97
f 29/42/29 37/37/37 99/37/98 106/42/98
f 7/20/7 42/45/42 95/45/94 105/20/104
f 1/29/1 17/32/17 104/32/103 103/29/102
f 5/16/5 1/17/1 103/17/102 100/16/99
f 45/21/45 3/19/3 98/19/97 97/21/96
f 42/45/42 34/13/34 96/13/95 95/45/94
f 37/37/37 45/21/45 97/21/96 99/37/98
f 19/18/19 5/16/5 100/16/99 101/18/100
f 34/13/34 26/14/26 102/14/101 96/13/95
f 28/28/28 23/26/23 108/26/106 110/28/108
f 32/34/32 28/53/28 110/53/108 109/34/107
f 24/8/24 32/34/32 109/34/107 107/8/105
f 23/23/23 24/8/24 107/8/105 108/22/106
f 40/36/40 48/15/48 112/43/110 114/52/112
f 36/51/36 40/36/40 114/52/112 113/51/111
f 44/2/44 36/39/36 113/39/111 111/2/109
f 48/15/48 44/44/44 111/44/109 112/43/110
f 40/36/40 36/51/36 116/51/114 118/36/116
f 32/34/32 40/36/40 118/36/116 117/34/115
f 28/53/28 32/34/32 117/34/115 115/53/113
f 36/39/36 28/28/28 115/28/113 116/38/114
